<svg stroke="currentColor" fill="none" stroke-width="0" viewBox="0 0 24 24" class="css-195qvm3" height="1em" width="1em" stroke-linecap="round" stroke-linejoin="round" xmlns="http://www.w3.org/2000/svg">
<path stroke-linecap="round" stroke-linejoin="round" stroke-width="2" d="M4.318 6.318a4.5 4.5 0 000 6.364L12 20.364l7.682-7.682a4.5 4.5 0 00-6.364-6.364L12 7.636l-1.318-1.318a4.5 4.5 0 00-6.364 0z"></path></svg>

<svg stroke="currentColor" fill="none" stroke-width="2" viewBox="0 0 24 24" class="css-195qvm3" height="1em" width="1em" stroke-linecap="round" stroke-linejoin="round"  xmlns="http://www.w3.org/2000/svg">
<path d="M20 21v-2a4 4 0 0 0-4-4H8a4 4 0 0 0-4 4v2"></path><circle cx="12" cy="7" r="4"></circle></svg>

<svg stroke="currentColor" fill="currentColor" stroke-width="0" viewBox="0 0 24 24" class="css-1ve0fge" height="1em" width="1em" stroke-linecap="round" stroke-linejoin="round" xmlns="http://www.w3.org/2000/svg">
<path d="M10 18a7.952 7.952 0 0 0 4.897-1.688l4.396 4.396 1.414-1.414-4.396-4.396A7.952 7.952 0 0 0 18 10c0-4.411-3.589-8-8-8s-8 3.589-8 8 3.589 8 8 8zm0-14c3.309 0 6 2.691 6 6s-2.691 6-6 6-6-2.691-6-6 2.691-6 6-6z"></path></svg>

<svg stroke="currentColor" fill="none" stroke-width="2" viewBox="0 0 24 25" class="css-u9mpbz" height="1em" width="1em" stroke-linecap="round" stroke-linejoin="round" xmlns="http://www.w3.org/2000/svg">
<path d="m4 9 3-6m13 6-3-6m5 9H2l1.7 8.507c.10662.4372.36062.8244.71924 1.0963.35862.272.79996.412 1.24976.3967h12.662c.4498.0153.8911-.1247 1.2498-.3967.3586-.2719.6126-.6591.7192-1.0963L22 12Zm.5-3h-21c-.552285 0-1 .44772-1 1v1c0 .5523.447715 1 1 1h21c.5523 0 1-.4477 1-1v-1c0-.55228-.4477-1-1-1Zm-11 6v3.5M16 15l-.5 3.5M7 15l.5 3.5"></path></svg>
